<?xml version="1.0" encoding="utf-8"?>
<!-- Generator: Adobe Illustrator 22.0.1, SVG Export Plug-In . SVG Version: 6.00 Build 0)  -->
<svg version="1.1" xmlns="http://www.w3.org/2000/svg" xmlns:xlink="http://www.w3.org/1999/xlink" x="0px" y="0px"
	 viewBox="0 0 1221.5 610.1" style="enable-background:new 0 0 1221.5 610.1;" xml:space="preserve">
<style type="text/css">
	.st0{fill:#EAEAEA;}
	.st1{fill:#CECECE;}
	.st2{fill:#CCCCCC;}
	.st3{fill:#909090;}
	.st4{fill:none;stroke:#000000;stroke-width:3;stroke-linecap:round;stroke-linejoin:round;}
	
		.st5{fill:none;stroke:#000000;stroke-width:3;stroke-linecap:round;stroke-linejoin:round;stroke-dasharray:11.5935,3.0364,0.276,11.5935;}
	
		.st6{fill:none;stroke:#000000;stroke-width:3;stroke-linecap:round;stroke-linejoin:round;stroke-dasharray:42.1079,11.0283,1.0026,42.1079;}
	
		.st7{fill:none;stroke:#000000;stroke-width:3;stroke-linecap:round;stroke-linejoin:round;stroke-dasharray:11.0283,1.0026,42.1079,11.0283,1.0026,42.1079;}
	
		.st8{fill:none;stroke:#000000;stroke-width:3;stroke-linecap:round;stroke-linejoin:round;stroke-dasharray:33.383,8.7432,0.7948,33.383;}
	
		.st9{fill:none;stroke:#000000;stroke-width:3;stroke-linecap:round;stroke-linejoin:round;stroke-dasharray:15.3711,4.0258,0.366,15.3711;}
	
		.st10{fill:none;stroke:#000000;stroke-width:3;stroke-linecap:round;stroke-linejoin:round;stroke-dasharray:29.0927,7.6195,0.6927,29.0927;}
	
		.st11{fill:none;stroke:#000000;stroke-width:3;stroke-linecap:round;stroke-linejoin:round;stroke-dasharray:7.6195,0.6927,29.0927,7.6195,0.6927,29.0927;}
	
		.st12{fill:none;stroke:#000000;stroke-width:3;stroke-linecap:round;stroke-linejoin:round;stroke-dasharray:41.7204,10.9268,0.9933,41.7204;}
	
		.st13{fill:none;stroke:#000000;stroke-width:3;stroke-linecap:round;stroke-linejoin:round;stroke-dasharray:10.9268,0.9933,41.7204,10.9268,0.9933,41.7204;}
	
		.st14{fill:none;stroke:#000000;stroke-width:3;stroke-linecap:round;stroke-linejoin:round;stroke-dasharray:11.2393,2.9436,0.2676,11.2393;}
	
		.st15{fill:none;stroke:#000000;stroke-width:3;stroke-linecap:round;stroke-linejoin:round;stroke-dasharray:38.101,9.9788,0.9072,38.101;}
	
		.st16{fill:none;stroke:#000000;stroke-width:3;stroke-linecap:round;stroke-linejoin:round;stroke-dasharray:32.8057,8.592,0.7811,32.8057;}
	
		.st17{fill:none;stroke:#000000;stroke-width:3;stroke-linecap:round;stroke-linejoin:round;stroke-dasharray:8.592,0.7811,32.8057,8.592,0.7811,32.8057;}
	
		.st18{fill:none;stroke:#000000;stroke-width:3;stroke-linecap:round;stroke-linejoin:round;stroke-dasharray:43.5826,11.4145,1.0377,43.5826;}
	
		.st19{fill:none;stroke:#000000;stroke-width:3;stroke-linecap:round;stroke-linejoin:round;stroke-dasharray:11.4145,1.0377,43.5826,11.4145,1.0377,43.5826;}
	
		.st20{fill:none;stroke:#000000;stroke-width:3;stroke-linecap:round;stroke-linejoin:round;stroke-dasharray:36.802,9.6386,0.8762,36.802;}
	
		.st21{fill:none;stroke:#000000;stroke-width:3;stroke-linecap:round;stroke-linejoin:round;stroke-miterlimit:10;stroke-dasharray:14,1,12;}
	.st22{fill:none;stroke:#000000;stroke-width:3;stroke-linecap:round;stroke-linejoin:round;stroke-miterlimit:10;}
	
		.st23{fill:none;stroke:#000000;stroke-width:3;stroke-linecap:round;stroke-linejoin:round;stroke-miterlimit:10;stroke-dasharray:12,4,12;}
	
		.st24{fill:none;stroke:#000000;stroke-width:3;stroke-linecap:round;stroke-linejoin:round;stroke-miterlimit:10;stroke-dasharray:42,13,42;}
</style>
<g id="Layer_1">
	<polygon class="st0" points="1017.2,433.5 1017.2,333 692.4,333 692.4,244.9 685.4,244.9 685.4,198.4 532.4,198.4 532.4,222.6 
		532.4,244.9 525.9,244.9 525.9,333 204,333 204,433.5 105,433.5 105,604.6 1113.2,604.6 1113.2,433.5 	"/>
	<polygon class="st1" points="618.2,285.6 600.3,285.6 560.9,336.6 573.6,336.6 573.6,401.5 642.9,401.5 642.9,336.6 654.9,336.6 	
		"/>
	<path class="st1" d="M204,567.6c0,8.5,0,37,0,37s-18.3,0-27,0c-8.4,0-27,0-27,0s0-28.1,0-37c0-20.4,12.1-37,27-37
		C191.9,530.6,204,547.2,204,567.6z"/>
	<path class="st1" d="M268,567.6c0,8.5,0,37,0,37s-18.3,0-27,0c-8.4,0-27,0-27,0s0-28.1,0-37c0-20.4,12.1-37,27-37
		C255.9,530.6,268,547.2,268,567.6z"/>
	<path class="st1" d="M338.5,567.6c0,8.5,0,37,0,37s-18.3,0-27,0c-8.4,0-27,0-27,0s0-28.1,0-37c0-20.4,12.1-37,27-37
		C326.4,530.6,338.5,547.2,338.5,567.6z"/>
	<path class="st1" d="M402.5,567.6c0,8.5,0,37,0,37s-18.3,0-27,0c-8.4,0-27,0-27,0s0-28.1,0-37c0-20.4,12.1-37,27-37
		C390.4,530.6,402.5,547.2,402.5,567.6z"/>
	<path class="st1" d="M466.5,567.6c0,8.5,0,37,0,37s-18.3,0-27,0c-8.4,0-27,0-27,0s0-28.1,0-37c0-20.4,12.1-37,27-37
		C454.4,530.6,466.5,547.2,466.5,567.6z"/>
	<path class="st1" d="M813.5,567.6c0,8.5,0,37,0,37s-18.3,0-27,0c-8.4,0-27,0-27,0s0-28.1,0-37c0-20.4,12.1-37,27-37
		S813.5,547.2,813.5,567.6z"/>
	<path class="st1" d="M877.5,567.6c0,8.5,0,37,0,37s-18.3,0-27,0c-8.4,0-27,0-27,0s0-28.1,0-37c0-20.4,12.1-37,27-37
		S877.5,547.2,877.5,567.6z"/>
	<path class="st1" d="M941.5,567.6c0,8.5,0,37,0,37s-18.3,0-27,0c-8.4,0-27,0-27,0s0-28.1,0-37c0-20.4,12.1-37,27-37
		S941.5,547.2,941.5,567.6z"/>
	<path class="st1" d="M1012,567.6c0,8.5,0,37,0,37s-18.3,0-27,0c-8.4,0-27,0-27,0s0-28.1,0-37c0-20.4,12.1-37,27-37
		S1012,547.2,1012,567.6z"/>
	<path class="st1" d="M1076,567.6c0,8.5,0,37,0,37s-18.3,0-27,0c-8.4,0-27,0-27,0s0-28.1,0-37c0-20.4,12.1-37,27-37
		C1063.9,530.6,1076,547.2,1076,567.6z"/>
	<polygon class="st1" points="207.9,368.9 9.9,422.9 105,433.5 553.9,433.5 568.9,419.9 466.9,368.9 	"/>
	<polygon class="st1" points="1010.3,368.9 1208.3,422.9 1113.2,433.5 665.7,433.5 650.7,419.9 752.7,368.9 	"/>
	<polygon class="st1" points="549.9,445.9 664.9,445.9 784.9,477.9 760.9,485.9 458.9,485.9 426.2,477.9 	"/>
	<polygon class="st1" points="506.6,189.9 540.6,168.6 677.9,168.6 710.2,189.9 	"/>
	<polygon class="st3" points="540.6,168.6 528.7,156.7 687.6,156.7 677.9,168.6 	"/>
	<polygon class="st1" points="528.7,156.7 552.6,139.6 666.2,139.6 687.6,156.7 	"/>
	<polygon class="st3" points="552.6,139.6 544.2,128.6 674.2,128.6 666.2,139.6 	"/>
	<polygon class="st1" points="544.2,128.6 608.4,101.6 674.2,128.6 	"/>
	<polygon class="st1" points="179.8,326.9 346.3,275.9 525.9,275.9 525.9,324.6 527,333 204,333 	"/>
	<polygon class="st1" points="1041.4,326.9 874.9,275.9 692.1,275.9 692.4,324.6 691,333 1017.2,333 	"/>
	<rect x="545.6" y="206.1" class="st1" width="15.3" height="35.8"/>
	<rect x="573.6" y="206.1" class="st1" width="15.3" height="35.8"/>
	<rect x="600.3" y="206.1" class="st1" width="15.3" height="35.8"/>
	<rect x="628.9" y="206.1" class="st1" width="15.3" height="35.8"/>
	<rect x="656.9" y="206.1" class="st1" width="15.3" height="35.8"/>
	<rect x="582.2" y="351" class="st1" width="15.3" height="35.8"/>
	<rect x="602.1" y="351" class="st1" width="15.3" height="35.8"/>
	<rect x="621.2" y="351" class="st1" width="15.3" height="35.8"/>
	<polygon class="st3" points="532.2,222.2 532.2,198.1 685.2,198.1 685.2,222.2 685.4,222.2 691.2,222.2 710.2,189.9 506.6,189.9 
		525.6,222.2 	"/>
	<path class="st3" d="M617,87.1c0-4.2-2.8-7.7-6.7-8.7l-0.2-5.8c2.5-0.9,4.2-3.2,4.2-6c0-3-2-5.4-4.7-6.2l-0.2-5.1
		c1.7-0.7,2.9-2.3,2.9-4.2c0-2-1.4-3.8-3.2-4.3l-0.1-3.6c1.2-0.5,2.1-1.6,2.1-3c0-1.5-1-2.7-2.3-3.1l-0.1-3.7
		c1.1-0.3,1.9-1.3,1.9-2.5c0-1.3-0.9-2.3-2.1-2.6l-0.6-14.4l-0.4,14.4c-1.2,0.2-2.2,1.3-2.2,2.6c0,1.2,0.9,2.3,2,2.6l-0.1,3.6
		c-1.4,0.3-2.5,1.6-2.5,3.1c0,1.5,1,2.7,2.3,3.1l-0.1,3.4c-2,0.4-3.6,2.3-3.6,4.4c0,2.1,1.4,3.8,3.3,4.3l-0.1,4.9
		c-2.8,0.7-4.9,3.2-4.9,6.2c0,2.9,1.9,5.3,4.5,6.1l-0.2,5.6c-4,0.9-7,4.5-7,8.8c0,4.1,2.7,7.6,6.5,8.7l-0.2,7h6.1l-0.3-7.2
		C614.5,94.4,617,91.1,617,87.1z"/>
	<rect x="508.6" y="510.6" class="st1" width="202.7" height="93.3"/>
</g>
<g id="Layer_2">
	<g>
		<g>
			<line class="st4" x1="1017.2" y1="370.8" x2="1017.2" y2="365.3"/>
			<line class="st5" x1="1017.2" y1="365" x2="1017.2" y2="344.3"/>
			<polyline class="st4" points="1017.2,338.5 1017.2,333 1011.7,333 			"/>
			<line class="st6" x1="1010.7" y1="333" x2="935.5" y2="333"/>
			<line class="st7" x1="914.5" y1="333" x2="719" y2="333"/>
			<polyline class="st4" points="697.9,333 692.4,333 692.4,327.5 			"/>
			<line class="st8" x1="692.4" y1="326.7" x2="692.4" y2="267.1"/>
			<polyline class="st4" points="692.4,250.4 692.4,244.9 685.4,244.9 685.4,239.4 			"/>
			<line class="st9" x1="685.4" y1="239" x2="685.4" y2="211.6"/>
			<polyline class="st4" points="685.4,203.9 685.4,198.4 679.9,198.4 			"/>
			<line class="st10" x1="679.2" y1="198.4" x2="627.3" y2="198.4"/>
			<line class="st11" x1="612.7" y1="198.4" x2="552.5" y2="198.4"/>
			<polyline class="st4" points="537.9,198.4 532.4,198.4 532.4,203.9 			"/>
			<polyline class="st9" points="532.4,204.3 532.4,222.6 532.4,231.7 			"/>
			<polyline class="st4" points="532.4,239.4 532.4,244.9 525.9,244.9 525.9,250.4 			"/>
			<line class="st8" x1="525.9" y1="251.2" x2="525.9" y2="310.8"/>
			<polyline class="st4" points="525.9,327.5 525.9,333 520.4,333 			"/>
			<line class="st12" x1="519.4" y1="333" x2="444.9" y2="333"/>
			<line class="st13" x1="424.1" y1="333" x2="230.4" y2="333"/>
			<polyline class="st4" points="209.5,333 204,333 204,338.5 			"/>
			<line class="st14" x1="204" y1="338.8" x2="204" y2="358.8"/>
			<line class="st4" x1="204" y1="364.5" x2="204" y2="370"/>
		</g>
	</g>
	<g>
		<g>
			<line class="st4" x1="204" y1="433.5" x2="198.5" y2="433.5"/>
			<line class="st15" x1="197.6" y1="433.5" x2="129.5" y2="433.5"/>
			<polyline class="st4" points="110.5,433.5 105,433.5 105,439 			"/>
			<line class="st16" x1="105" y1="439.8" x2="105" y2="498.4"/>
			<line class="st17" x1="105" y1="514.8" x2="105" y2="582.7"/>
			<polyline class="st4" points="105,599.1 105,604.6 110.5,604.6 			"/>
			<line class="st18" x1="111.5" y1="604.6" x2="189.4" y2="604.6"/>
			<line class="st19" x1="211.2" y1="604.6" x2="1085.9" y2="604.6"/>
			<polyline class="st4" points="1107.7,604.6 1113.2,604.6 1113.2,599.1 			"/>
			<line class="st16" x1="1113.2" y1="598.3" x2="1113.2" y2="539.8"/>
			<line class="st17" x1="1113.2" y1="523.4" x2="1113.2" y2="455.4"/>
			<polyline class="st4" points="1113.2,439 1113.2,433.5 1107.7,433.5 			"/>
			<line class="st20" x1="1106.8" y1="433.5" x2="1041.1" y2="433.5"/>
			<line class="st4" x1="1022.7" y1="433.5" x2="1017.2" y2="433.5"/>
		</g>
	</g>
	
		<image style="display:none;overflow:visible;" width="996" height="379" xlink:href="../res-psd/1.png"  transform="matrix(1.5723 0 0 1.5723 25 47.8194)">
	</image>
	<polygon class="st21" points="618.2,285.6 600.3,285.6 560.9,336.6 573.6,336.6 573.6,401.5 642.9,401.5 642.9,336.6 654.9,336.6 	
		"/>
	<path class="st22" d="M204,567.6c0,8.5,0,37,0,37s-18.3,0-27,0c-8.4,0-27,0-27,0s0-28.1,0-37c0-20.4,12.1-37,27-37
		C191.9,530.6,204,547.2,204,567.6z"/>
	<path class="st22" d="M268,567.6c0,8.5,0,37,0,37s-18.3,0-27,0c-8.4,0-27,0-27,0s0-28.1,0-37c0-20.4,12.1-37,27-37
		C255.9,530.6,268,547.2,268,567.6z"/>
	<path class="st22" d="M338.5,567.6c0,8.5,0,37,0,37s-18.3,0-27,0c-8.4,0-27,0-27,0s0-28.1,0-37c0-20.4,12.1-37,27-37
		C326.4,530.6,338.5,547.2,338.5,567.6z"/>
	<path class="st22" d="M402.5,567.6c0,8.5,0,37,0,37s-18.3,0-27,0c-8.4,0-27,0-27,0s0-28.1,0-37c0-20.4,12.1-37,27-37
		C390.4,530.6,402.5,547.2,402.5,567.6z"/>
	<path class="st22" d="M466.5,567.6c0,8.5,0,37,0,37s-18.3,0-27,0c-8.4,0-27,0-27,0s0-28.1,0-37c0-20.4,12.1-37,27-37
		C454.4,530.6,466.5,547.2,466.5,567.6z"/>
	<path class="st22" d="M813.5,567.6c0,8.5,0,37,0,37s-18.3,0-27,0c-8.4,0-27,0-27,0s0-28.1,0-37c0-20.4,12.1-37,27-37
		S813.5,547.2,813.5,567.6z"/>
	<path class="st22" d="M877.5,567.6c0,8.5,0,37,0,37s-18.3,0-27,0c-8.4,0-27,0-27,0s0-28.1,0-37c0-20.4,12.1-37,27-37
		S877.5,547.2,877.5,567.6z"/>
	<path class="st22" d="M941.5,567.6c0,8.5,0,37,0,37s-18.3,0-27,0c-8.4,0-27,0-27,0s0-28.1,0-37c0-20.4,12.1-37,27-37
		S941.5,547.2,941.5,567.6z"/>
	<path class="st22" d="M1012,567.6c0,8.5,0,37,0,37s-18.3,0-27,0c-8.4,0-27,0-27,0s0-28.1,0-37c0-20.4,12.1-37,27-37
		S1012,547.2,1012,567.6z"/>
	<path class="st22" d="M1076,567.6c0,8.5,0,37,0,37s-18.3,0-27,0c-8.4,0-27,0-27,0s0-28.1,0-37c0-20.4,12.1-37,27-37
		C1063.9,530.6,1076,547.2,1076,567.6z"/>
	<polygon class="st22" points="207.9,368.9 9.9,422.9 105,433.5 553.9,433.5 568.9,419.9 466.9,368.9 	"/>
	<polygon class="st22" points="1010.3,368.9 1208.3,422.9 1113.2,433.5 665.7,433.5 650.7,419.9 752.7,368.9 	"/>
	<polygon class="st22" points="549.9,445.9 664.9,445.9 784.9,477.9 760.9,485.9 458.9,485.9 426.2,477.9 	"/>
	<polyline class="st23" points="508.6,603.9 508.6,510.6 711.2,510.6 711.2,603.9 	"/>
	<polygon class="st22" points="506.6,189.9 540.6,168.6 677.9,168.6 710.2,189.9 	"/>
	<polygon class="st22" points="540.6,168.6 528.7,156.7 687.6,156.7 677.9,168.6 	"/>
	<polygon class="st23" points="528.7,156.7 552.6,139.6 666.2,139.6 687.6,156.7 	"/>
	<polygon class="st22" points="552.6,139.6 544.2,128.6 674.2,128.6 666.2,139.6 	"/>
	<polygon class="st24" points="544.2,128.6 608.4,101.6 674.2,128.6 	"/>
	<path class="st23" d="M617.2,87.1c0-4.2-2.8-7.7-6.7-8.7l-0.2-5.8c2.5-0.9,4.2-3.2,4.2-6c0-3-2-5.4-4.7-6.2l-0.2-5.1
		c1.7-0.7,2.9-2.3,2.9-4.2c0-2-1.4-3.8-3.2-4.3l-0.1-3.6c1.2-0.5,2.1-1.6,2.1-3c0-1.5-1-2.7-2.3-3.1l-0.1-3.7
		c1.1-0.3,1.9-1.3,1.9-2.5c0-1.3-0.9-2.3-2.1-2.6L608,13.9l-0.4,14.4c-1.2,0.2-2.2,1.3-2.2,2.6c0,1.2,0.9,2.3,2,2.6l-0.1,3.6
		c-1.4,0.3-2.5,1.6-2.5,3.1c0,1.5,1,2.7,2.3,3.1l-0.1,3.4c-2,0.4-3.6,2.3-3.6,4.4c0,2.1,1.4,3.8,3.3,4.3l-0.1,4.9
		c-2.8,0.7-4.9,3.2-4.9,6.2c0,2.9,1.9,5.3,4.5,6.1l-0.2,5.6c-4,0.9-7,4.5-7,8.8c0,4.1,2.7,7.6,6.5,8.7l-0.2,7h6.1l-0.3-7.2
		C614.7,94.4,617.2,91.1,617.2,87.1z"/>
	<polygon class="st22" points="179.8,326.9 346.3,275.9 525.9,275.9 525.9,324.6 527,333 204,333 	"/>
	<polygon class="st22" points="1041.4,326.9 874.9,275.9 692.1,275.9 692.4,324.6 691,333 1017.2,333 	"/>
	<rect x="545.6" y="206.1" class="st22" width="15.3" height="35.8"/>
	<rect x="573.6" y="206.1" class="st22" width="15.3" height="35.8"/>
	<rect x="600.3" y="206.1" class="st22" width="15.3" height="35.8"/>
	<rect x="628.9" y="206.1" class="st22" width="15.3" height="35.8"/>
	<rect x="656.9" y="206.1" class="st22" width="15.3" height="35.8"/>
	<rect x="582.2" y="351" class="st22" width="15.3" height="35.8"/>
	<rect x="602.1" y="351" class="st22" width="15.3" height="35.8"/>
	<rect x="621.2" y="351" class="st22" width="15.3" height="35.8"/>
	<polygon class="st23" points="532.2,222.2 532.2,198.1 685.2,198.1 685.2,222.2 685.4,222.2 691.2,222.2 710.2,189.9 506.6,189.9 
		525.6,222.2 	"/>
</g>
</svg>
