<?xml version="1.0" encoding="utf-8"?>
<!-- Generator: Adobe Illustrator 22.0.1, SVG Export Plug-In . SVG Version: 6.00 Build 0)  -->
<svg version="1.1" xmlns="http://www.w3.org/2000/svg" xmlns:xlink="http://www.w3.org/1999/xlink" x="0px" y="0px"
	 viewBox="0 0 193.8 65.7" style="enable-background:new 0 0 193.8 65.7;" xml:space="preserve">
<style type="text/css">
	.st0{fill:#FFFFFF;}
</style>
<g id="Layer_2">
</g>
<g id="Layer_1">
	<title>logo</title>
	<g>
		<path class="st0" d="M96.2,27.8c-3.3,0.1-5.9,2.8-5.9,6.1c0.1,3.3,2.7,5.9,6,5.9c3.3,0,6-2.7,6-6c0,0,0-0.1,0-0.1
			C102.2,30.4,99.5,27.7,96.2,27.8z"/>
		<path class="st0" d="M171.7,29.3c-0.1,0-0.1,0-0.2,0h-0.7v1.3h0.7c0.4,0,0.7-0.2,0.7-0.6C172.3,29.7,172.1,29.4,171.7,29.3z"/>
		<polygon class="st0" points="32.8,36.8 36.9,36.8 36.9,36.8 40.3,36.8 36.5,27.3 		"/>
		<path class="st0" d="M65.7,27.6c-3.4,0-6,2.8-6,6.2c0,3.4,2.8,6,6.2,6c0,0,0,0,0,0c3.3,0,6-2.8,6-6.1c0,0,0,0,0,0
			C71.8,30.2,69.1,27.5,65.7,27.6z"/>
		<path class="st0" d="M144.5,26.6c-2.7-0.1-5.1,1.7-5.7,4.3h11.2C149.5,28.3,147.2,26.5,144.5,26.6z"/>
		<path class="st0" d="M171.6,26.8c-2.5,0-4.5,2-4.5,4.5s2,4.5,4.5,4.5c0,0,0,0,0,0c2.4,0,4.4-2,4.4-4.5h0
			C176.1,28.8,174.1,26.8,171.6,26.8z M173.5,34.2h-0.8c-0.1,0-0.3-0.1-0.3-0.2l-1.2-2.2h-0.2v2.1c0,0.2-0.1,0.3-0.3,0.3
			c0,0,0,0,0,0h-0.6c-0.2,0-0.3-0.1-0.3-0.3c0,0,0,0,0-0.1v-5.5c0-0.2,0.1-0.3,0.3-0.3c0,0,0,0,0.1,0h1.6c1,0,1.9,0.8,1.9,1.9
			c0,0.7-0.4,1.4-1,1.7l1.3,2.2C173.8,34.1,173.7,34.2,173.5,34.2z"/>
		<path class="st0" d="M191.5,25.5l-14-20.1C175.1,2,171.2,0,167,0H26.8c-4.2,0-8.1,2-10.4,5.4L2.3,25.5c-3.1,4.4-3.1,10.3,0,14.7
			l14.1,20.1c2.4,3.4,6.3,5.4,10.4,5.4H167c4.1,0,8-2,10.4-5.4l14.1-20.1C194.6,35.8,194.6,29.9,191.5,25.5z M49,45.2h-4.4
			c-0.6,0-1.1-0.3-1.3-0.9l-0.8-2h-12l-0.8,2c-0.2,0.6-0.7,0.9-1.3,0.9H24c-0.2,0-0.4,0-0.6-0.1c-0.4-0.3-0.5-0.8-0.3-1.2l10.4-26.3
			c0.2-0.6,0.7-0.9,1.3-0.9h3c0.6,0,1.1,0.3,1.3,0.9l10.7,26.3c0.1,0.2,0.1,0.4,0.1,0.6C49.9,45,49.5,45.3,49,45.2z M78.1,22.9v20.9
			c0,0.8-0.1,1.6-0.2,2.4c-0.9,5.9-5,8.9-9.6,9.3c-0.7,0.1-1.4,0.2-2,0.2c-3.4,0-6.6-1.2-9.2-3.3c-0.1-0.1-0.2-0.1-0.3-0.2
			c-0.4-0.5-0.4-1.1,0.1-1.6l2.1-2.5c0,0,0-0.1,0.1-0.1c0.4-0.5,1.1-0.6,1.7-0.2c1.6,1.2,3.5,1.8,5.5,1.9c1.2,0,2.5-0.4,3.5-1
			l0.2-0.2l0.3-0.2c1.3-1.1,2-2.8,1.8-4.5c-1.9,1.3-4.1,2-6.4,2.1c-6.8,0-12.3-5.5-12.3-12.3s5.5-12.3,12.3-12.3c2.5,0,5,0.8,7,2.3
			v-0.9c0-0.1,0-0.1,0-0.2c0.1-0.5,0.6-0.9,1.1-0.9h3c0.1,0,0.1,0,0.2,0C77.7,21.7,78.1,22.3,78.1,22.9L78.1,22.9z M108.5,44.4
			c0,0.7-0.6,1.3-1.3,1.3h-2.9c-0.6,0-1.1-0.5-1.1-1.1c0,0,0,0,0,0v-0.9c-2,1.5-4.5,2.4-7.1,2.4c-6.8,0-12.3-5.5-12.3-12.3
			c0-6.8,5.5-12.3,12.3-12.3c2.5,0,5,0.8,7,2.3v-0.8c0-0.6,0.5-1.1,1.1-1.1c0,0,0,0,0,0h2.9c0.7,0,1.3,0.5,1.3,1.3c0,0,0,0,0,0V44.4
			z M128.8,22.9V26c0.1,0.6-0.4,1.1-0.9,1.2c-0.1,0-0.2,0-0.3,0h-6.1v9.2c-0.1,1.6,1.2,2.9,2.8,3c0.1,0,0.1,0,0.2,0h2.9
			c0.6,0,1.1,0.4,1.2,1c0,0.1,0,0.2,0,0.3v3.8c0.1,0.6-0.4,1.2-1,1.2c-0.1,0-0.2,0-0.2,0h-3.1c-5.5,0-9-3.2-9-9.3v-21
			c0-0.6,0.4-1.2,1.1-1.2c0.1,0,0.1,0,0.2,0h3.8c0.6,0,1.2,0.4,1.2,1.1c0,0.1,0,0.1,0,0.2v6.4h6.1c0.6-0.1,1.1,0.4,1.2,0.9
			C128.8,22.7,128.8,22.8,128.8,22.9z M155.9,35.7c-0.1,0-0.2,0-0.3,0h-16.8c1,2.7,3.5,4.5,6.4,4.5c2-0.1,3.9-0.7,5.5-1.9
			c0.5-0.4,1.3-0.3,1.7,0.2c0,0,0,0,0.1,0.1l2.1,2.5c0.5,0.4,0.5,1.1,0.1,1.6c-0.1,0.1-0.2,0.2-0.3,0.2c-2.6,2.1-5.9,3.2-9.2,3.3
			c-6.9,0.1-12.6-5.5-12.7-12.4c0-0.1,0-0.1,0-0.2c0-5.3,3.4-9.8,8.2-11.4c0,0,0-0.1,0-0.1c-0.1-0.5-0.1-1-0.1-1.5
			c0-1.1,0.3-2.2,0.8-3.3c1.1-2,2.8-3.6,4.9-4.5c1.2-0.5,2.4-0.7,3.7-0.7c0.4,0,0.9,0,1.3,0.1h0.1c0,0,2.6,0.4,2.7,2.7
			c0.1,1.9-2,2.3-3.4,2.3c-1.5,0-3.1-0.1-4.5,0.6c-1.2,0.7-2,1.8-2.2,3.2c0,0.2,0,0.3,0,0.5c0.2,0,0.5,0,0.7,0c0.1,0,0.2,0,0.3,0
			c6.7,0,11.7,5,12.2,13.1C156.9,35,156.5,35.6,155.9,35.7z M171.6,37.4c-3.4,0-6.1-2.7-6.1-6.1c0-3.4,2.7-6.1,6.1-6.1c0,0,0,0,0,0
			c3.3,0,6.1,2.7,6.1,6.1C177.6,34.7,174.9,37.4,171.6,37.4z"/>
	</g>
</g>
</svg>
