<svg id="Layer_1" data-name="Layer 1" xmlns="http://www.w3.org/2000/svg" xmlns:xlink="http://www.w3.org/1999/xlink" viewBox="0 0 193.83 65.66">
  <defs>
    <style>
      .cls-1 {
        fill: url(#linear-gradient);
      }

      .cls-2 {
        fill: #fff;
      }
    </style>
    <linearGradient id="linear-gradient" x1="266" y1="6.19" x2="105.78" y2="166.41" gradientUnits="userSpaceOnUse">
      <stop offset="0.35" stop-color="#1992be"/>
      <stop offset="0.73" stop-color="#2e5d92"/>
      <stop offset="1" stop-color="#3f3570"/>
    </linearGradient>
  </defs>
  <title>logo</title>
  <g>
    <path class="cls-1" d="M83.39,135.71l-14.1-20.08a12.74,12.74,0,0,1,0-14.66L83.39,80.9a12.75,12.75,0,0,1,10.44-5.42H234a12.75,12.75,0,0,1,10.44,5.42L258.49,101a12.75,12.75,0,0,1,0,14.66l-14.1,20.08A12.75,12.75,0,0,1,234,141.13H93.83A12.75,12.75,0,0,1,83.39,135.71Z" transform="translate(-66.98 -75.47)"/>
    <g>
      <path class="cls-2" d="M244.62,106.79a6.07,6.07,0,1,1-6.06-6.06A6.06,6.06,0,0,1,244.62,106.79Zm-1.58,0a4.49,4.49,0,1,0-4.48,4.48A4.52,4.52,0,0,0,243,106.79Zm-2.34,2.56c0.11,0.2,0,.34-0.21.34h-0.8a0.38,0.38,0,0,1-.34-0.19l-1.24-2.19h-0.24v2.06a0.3,0.3,0,0,1-.32.32h-0.63a0.29,0.29,0,0,1-.32-0.32v-5.53a0.29,0.29,0,0,1,.32-0.31h1.61a1.89,1.89,0,0,1,.85,3.58Zm-2.84-3.29h0.66a0.64,0.64,0,1,0,0-1.27h-0.66v1.27Z" transform="translate(-66.98 -75.47)"/>
      <g>
        <path class="cls-2" d="M175.45,98.52v21.34a1.29,1.29,0,0,1-1.29,1.29h-2.87a1.08,1.08,0,0,1-1.1-1.1v-0.91a11.91,11.91,0,0,1-7.08,2.39,12.34,12.34,0,1,1,0-24.69,12.05,12.05,0,0,1,7,2.34V98.33a1.08,1.08,0,0,1,1.1-1.1h2.92A1.29,1.29,0,0,1,175.45,98.52Zm-6.18,10.62a6,6,0,1,0-6,6.13A6,6,0,0,0,169.27,109.14Z" transform="translate(-66.98 -75.47)"/>
        <path class="cls-2" d="M195.5,116.13v3.78a1.13,1.13,0,0,1-1.24,1.24h-3.11c-5.55,0-9-3.16-9-9.33v-21a1.16,1.16,0,0,1,1.24-1.24h3.78a1.16,1.16,0,0,1,1.24,1.24v6.36h6.12a1.08,1.08,0,0,1,1.2,1.2v3.06a1.08,1.08,0,0,1-1.2,1.2h-6.12v9.19a2.9,2.9,0,0,0,3,3h2.92A1.11,1.11,0,0,1,195.5,116.13Z" transform="translate(-66.98 -75.47)"/>
        <path class="cls-2" d="M222.56,111.15H205.76a6.75,6.75,0,0,0,6.41,4.5,9.74,9.74,0,0,0,5.5-1.91,1.19,1.19,0,0,1,1.72.29l2.11,2.49a1.1,1.1,0,0,1-.19,1.77,15,15,0,0,1-9.24,3.25,12.57,12.57,0,0,1-12.72-12.58,12.07,12.07,0,0,1,12.29-12.1c6.65,0,11.67,5,12.15,13.06A1.09,1.09,0,0,1,222.56,111.15Zm-5.5-4.78a5.53,5.53,0,0,0-5.55-4.35,5.59,5.59,0,0,0-5.69,4.35h11.24Z" transform="translate(-66.98 -75.47)"/>
        <path class="cls-2" d="M207.48,97.41a7,7,0,0,1-.09-1.49,7.83,7.83,0,0,1,.83-3.26,9.59,9.59,0,0,1,4.91-4.48,9.35,9.35,0,0,1,3.67-.73,9,9,0,0,1,1.28.1h0.06s2.6,0.4,2.68,2.72c0.07,1.86-2,2.31-3.45,2.3s-3.13-.12-4.47.62a4.34,4.34,0,0,0-2.2,3.19,4,4,0,0,1-.49,2.22,1.49,1.49,0,0,1-1.67.39A1.94,1.94,0,0,1,207.48,97.41Z" transform="translate(-66.98 -75.47)"/>
      </g>
      <path class="cls-2" d="M145.07,98.41a1.16,1.16,0,0,0-1.24-1.25h-3a1,1,0,0,0-1.1,1.1v0.86a11.74,11.74,0,0,0-7-2.34,12.34,12.34,0,0,0,0,24.69,11,11,0,0,0,6.36-2.06,5.44,5.44,0,0,1-1.85,4.54l-0.3.21-0.24.15a6.87,6.87,0,0,1-3.52,1,9.76,9.76,0,0,1-5.5-1.91,1.18,1.18,0,0,0-1.72.29l-2.1,2.49a1.1,1.1,0,0,0,.19,1.77,15,15,0,0,0,9.23,3.25,12.79,12.79,0,0,0,2.05-.17c4.55-.4,8.67-3.36,9.56-9.28v0h0a16.27,16.27,0,0,0,.17-2.41V98.41Zm-12.2,16.79a6.08,6.08,0,1,1,6-6.12A6.05,6.05,0,0,1,132.87,115.2Z" transform="translate(-66.98 -75.47)"/>
      <path class="cls-2" d="M116.87,119.37L106.15,93.07a1.26,1.26,0,0,0-1.31-.89h-3a1.25,1.25,0,0,0-1.31.89L90.11,119.37a0.88,0.88,0,0,0,.88,1.35h4.4a1.26,1.26,0,0,0,1.31-.89l0.81-2h12l0.79,2a1.26,1.26,0,0,0,1.31.89l4.36,0A0.9,0.9,0,0,0,116.87,119.37Zm-13-7.09H99.73l3.8-9.49,3.76,9.49h-3.41Z" transform="translate(-66.98 -75.47)"/>
    </g>
  </g>
</svg>
